PathFileType	4	(X/Y/Z)	Walk1_0-155.trc
DataRate	CameraRate	NumFrames	NumMarkers	Units	OrigDataRate	OrigDataStartFrame	OrigNumFrames
30	30	6	22	m	30	96	155
Frame#	Time	Hip			RHip			RKnee			RAnkle			RBigToe			RSmallToe			RHeel			LHip			LKnee			LAnkle			LBigToe			LSmallToe			LHeel			Neck			Head			Nose			RShoulder			RElbow			RWrist			LShoulder			LElbow			LWrist		
		X1	Y1	Z1	X2	Y2	Z2	X3	Y3	Z3	X4	Y4	Z4	X5	Y5	Z5	X6	Y6	Z6	X7	Y7	Z7	X8	Y8	Z8	X9	Y9	Z9	X10	Y10	Z10	X11	Y11	Z11	X12	Y12	Z12	X13	Y13	Z13	X14	Y14	Z14	X15	Y15	Z15	X16	Y16	Z16	X17	Y17	Z17	X18	Y18	Z18	X19	Y19	Z19	X20	Y20	Z20	X21	Y21	Z21	X22	Y22	Z22
97	3.2333333333333334	0.12888171677303875	0.9097785776055392	0.34430128255973763	0.13726413737201126	0.8820996616888955	0.456880360151958	0.3141012432340295	0.5712069502663264	0.46722148197185936	-0.011755243018052954	0.3075840112818566	0.4302149021628516	0.03653490418798342	0.08538945848367611	0.44683078237428075	-0.01600774378114027	0.11900019529737714	0.4825107369233916	-0.10378963883687319	0.2848336717615789	0.402589602758495	0.12688911284909313	0.8875852156739716	0.2306505499718747	0.15708343126514263	0.5064108496652195	0.24258685371502678	0.10942459431760318	0.11356157887084026	0.2723211226572696	0.3207152475946814	0.04731136703463032	0.2920623906066308	0.2861167589557014	0.03733624386914042	0.23126093796550834	0.056932828801030656	0.03690945637828667	0.2937035656524417	0.06135486380786234	1.5972226544352621	0.3264770802099963	0.11983907348003597	1.8362475741512416	0.3241591599058262	0.2508598929072735	1.6937354781165366	0.31977138493744367	0.021183648421276447	1.4672314187112956	0.5137612077444367	0.06697218687738009	1.1608444818657249	0.562431886465167	0.10727605661964736	0.9076924343347312	0.6117214225643829	0.07049327578141666	1.465420141790576	0.1630623277855433	0.14520680467507785	1.1656170700378405	0.0940121986732932	0.2521383708183256	0.9182347761778491	0.08896297308142194
98	3.2666666666666666	0.1625035843851342	0.9148565457412903	0.34020733963498295	0.1680275911264126	0.8914656980517014	0.4590394402331132	0.3737875089790878	0.5866379634280509	0.4657895716302338	0.08972952359546361	0.2729483619634949	0.42996545661905067	0.18667558155807923	0.08598668431933036	0.4572530140668858	0.14412308459229936	0.10613668764524653	0.48322715507442426	0.003648633800852298	0.22158228917722123	0.40180870650622086	0.1537318632022823	0.893285699911669	0.2252368582703025	0.1691162299323381	0.5061155854274435	0.2438605964053335	0.11222588688711083	0.11420725470963186	0.28355941292128434	0.32412559239966016	0.05292601463123473	0.2993450776817219	0.27838764220247864	0.03902069942890365	0.24167769927086097	0.0677035237666858	0.03089902968448799	0.27702533360258813	0.10178197933089797	1.6012924554482455	0.3286487274404021	0.16083644325440172	1.844280998633114	0.3405384737320543	0.2575976695022705	1.6989283490570237	0.3386180552927771	0.05948300863503345	1.4754202760306157	0.5173301355472671	0.08387098283049689	1.1637267265980382	0.5606632053360112	0.10650672158776672	0.9149797675132836	0.6167218391333352	0.11272210764926861	1.4767361371268375	0.16447465241211423	0.19357406577253944	1.1744045879730038	0.09102253332093786	0.2953020684685482	0.9345853353885017	0.06734779119634891
99	3.3	0.19240953728251206	0.9145442535603938	0.3390728052927327	0.20480366843103107	0.8912602778709456	0.45859861722895184	0.3733043789678934	0.585486513526417	0.457045190950076	0.21431559173319759	0.2406557554091386	0.43866841130303397	0.37881848261831474	0.11259574951625655	0.4611704918868563	0.32686535323719135	0.09343571311329316	0.48565499921089467	0.1480551605760787	0.17270779779654225	0.4218988189868875	0.18187383098250803	0.8872324629467021	0.22754420422251287	0.1629762779306835	0.5101895798742287	0.25896887751017916	0.11663584424465195	0.11576787706923128	0.2831937214836395	0.3321858864422321	0.05553632408226064	0.2894695939279538	0.27534488842716776	0.04163416106703056	0.2341530074242963	0.07422649926190335	0.049935445595966604	0.26988518328045064	0.1439870834815367	1.6027755532247494	0.3308531446016975	0.24497925764520012	1.847110401560085	0.3778081775634196	0.363446630514272	1.6852906087182755	0.306155960690626	0.09424604520314248	1.4774729298056388	0.5173137650326154	0.09113533928201636	1.171016812764372	0.5717659263358124	0.12431232370821821	0.9147106028492067	0.6196746680146084	0.1578532214813473	1.47893335894436	0.16571772795034914	0.24068180965098565	1.1777591097060167	0.08395496357055775	0.39476748615327334	0.9342941727805817	0.09737944324929623
100	3.3333333333333335	0.2356103051500235	0.9134294576712589	0.34498578615092274	0.2475915425560252	0.8899689932721324	0.46357486474059906	0.46231126899338354	0.5852527128515739	0.45290549326438284	0.3058938734453032	0.19241773316347863	0.42873131994058034	0.5177148608620894	0.08027757666837626	0.4435885779507782	0.4614963167645155	0.061700961457182346	0.48110718335251407	0.2445013495663137	0.11183024855413168	0.4160226583487338	0.2152813964643057	0.8840051178638756	0.23243215073574935	0.17857205530859319	0.5112940368339557	0.25790734338280064	0.1317620055777918	0.11951528626593215	0.27765373866920834	0.3179456217455912	0.031415455022856656	0.30177266846177075	0.30174763268488775	0.041481078046655274	0.2340861851179779	0.08597982846990053	0.03325258569317811	0.2861596067056071	0.18270886930625505	1.6018515683051646	0.3314510736562964	0.261602313806105	1.8495021721342655	0.35809814061651446	0.4093366559152311	1.6815120080055561	0.3017411450669623	0.13158119059310636	1.4755329813696205	0.5200943201150025	0.1145010720070352	1.1728445284114624	0.5744423318647793	0.13730471831851024	0.9218912767758317	0.6211015492844918	0.20091884409888158	1.481735762642135	0.16996794651828825	0.29010850421122797	1.1818423010313557	0.08263686934466313	0.4561263780424598	0.9637387565064	0.09450224733264151
101	3.3666666666666667	0.2814587588533946	0.9102360935397767	0.3517297816626932	0.2934600258371243	0.8869501575556245	0.4615276756911603	0.4970612231928417	0.5730084317473111	0.4450599373982361	0.4440058308001976	0.16752488697983975	0.4435415270758711	0.6449821875817883	0.07975170650741077	0.4492408096508752	0.6116407244673966	0.07713804344553782	0.4978730403654594	0.39726211389582533	0.08023686353942669	0.43345219274674185	0.25001775827527317	0.8867122208618404	0.23098769285225712	0.20892513517324002	0.5010718158661883	0.25049923583919015	0.1302648762516353	0.12471988578789563	0.2863085596330884	0.2954538380853272	0.04475332990164143	0.3044308205039187	0.2879716043919129	0.039164192985610066	0.21570071324401985	0.07608244301823293	0.0349014427503406	0.28907154488677206	0.2312065095645175	1.5994568525123534	0.3331288531007979	0.3098189335886701	1.8501642540224112	0.3597608436157496	0.4496813677583987	1.6767971544436862	0.3106607151066409	0.17957032942635048	1.4706093982096735	0.5238891124029009	0.1432705292958328	1.172292745221235	0.5776738079346919	0.15325096431171972	0.9174389831510095	0.6268692083166417	0.24968079610748517	1.4866568025639166	0.17508735941633563	0.333282224023631	1.1890570779752077	0.07899450808880513	0.5173589152091239	0.981384659335075	0.10180427741455869
102	3.4	0.320729547851284	0.906607961907678	0.35242497279768964	0.3379321778185494	0.8747712056491236	0.4607479681728338	0.5149374696599468	0.5111576887384218	0.46995369981063606	0.5596440142038358	0.16453869737044055	0.4567609841685709	0.7501199083665487	0.10877800523752473	0.45858053251502107	0.7212193305480552	0.09327909330460714	0.5040188125014693	0.5289485845195725	0.0820201351261154	0.4505383094053083	0.29225095667824796	0.8774641463465226	0.2410434526759214	0.22447739352378998	0.498501869069911	0.2570159032250923	0.13237121987514253	0.12215751844981697	0.28401830902158254	0.3376260093707483	0.04580811682292773	0.27309589277591084	0.301243185386384	0.037666484551882	0.22121870627573123	0.07033484636630984	0.038422113949033526	0.28682300781254094	0.2731361484353389	1.5961094101638402	0.3337204386727348	0.35549038374953806	1.8436896699681011	0.3678690592955522	0.4958541625299271	1.6685560477503192	0.3163657635243117	0.2199573662983722	1.4658953919367375	0.5214811122317745	0.17337994911927584	1.1714596101522943	0.5764303381972592	0.17441510851173844	0.9166785020005377	0.6280009599836445	0.2957632269495132	1.483663001419332	0.18097050047787921	0.3810432657447349	1.1938284483849366	0.08463515931164803	0.5765732186316598	0.9911651192953004	0.1107885870349433
